# xmcd
#
# Track frame offsets: 
#        150
#        12577
#        33068
#        47280
#        63165
#        77281
#        92650
#        114112
#        128699
#        144465
#        160088
#        172334
#
# Disc length: 2540 seconds
#
# Revision: 7
# Processed by: cddbd v1.5.2PL0 Copyright (c) Steve Scherf et al.
# Submitted via: ExactAudioCopy v0.95b3
#
DISCID=8509ea0c
DTITLE=Toby Keith - American Ride
DYEAR=2009
DGENRE=Country
TTITLE0=American Ride
TTITLE1=Gypsy Driftin'
TTITLE2=Are You Feelin' Me
TTITLE3=Every Dog Has Its Day
TTITLE4=Woke Up On My Own
TTITLE5=If You're Tryin' You Ain't
TTITLE6=Cryin' For Me (Wayman's Song) (feat. Dave Koz, Marcus Miller &
TTITLE6=Arthur Thompson)
TTITLE7=If I Had One
TTITLE8=You Can't Read My Mind
TTITLE9=Tender As I Wanna Be
TTITLE10=Loaded
TTITLE11=Ballad Of Balad (feat. The Hogliners)
EXTD=YEAR: 2009
EXTT0=
EXTT1=
EXTT2=
EXTT3=
EXTT4=
EXTT5=
EXTT6=
EXTT7=
EXTT8=
EXTT9=
EXTT10=
EXTT11=
PLAYORDER=
